<?xml version="1.0" encoding="UTF-8"?>
<svg id="b" data-name="Layer 2" xmlns="http://www.w3.org/2000/svg" viewBox="0 0 333.24 54.32">
  <defs>
    <style>
      .d {
        fill: #2884e8;
      }

      .e {
        fill: #303030;
      }
    </style>
  </defs>
  <g id="c" data-name="Layer 2">
    <g>
      <g>
        <path class="d" d="M297.17,33.64c-2.93,0-5.41-.55-7.44-1.66-2.03-1.11-3.57-2.67-4.63-4.69-1.05-2.02-1.58-4.4-1.58-7.16V1.67h6.99v18.71c0,1.36.26,2.55.79,3.56.53,1.01,1.28,1.78,2.26,2.32.98.54,2.18.81,3.6.81s2.63-.27,3.62-.81c.99-.54,1.74-1.31,2.24-2.3.5-.99.75-2.19.75-3.58V1.67h7.03v18.46c0,2.76-.53,5.14-1.58,7.16-1.05,2.02-2.59,3.58-4.6,4.69-2.02,1.11-4.5,1.66-7.46,1.66Z"/>
        <polygon class="d" points="320.61 7.46 320.61 14.46 332.67 14.46 332.67 20.25 320.61 20.29 320.61 32.93 313.62 32.93 313.62 1.67 333.24 1.67 333.24 7.46 320.61 7.46"/>
      </g>
      <g>
        <path class="e" d="M13.04,33.86c-2.81,0-5.19-.45-7.12-1.36-1.93-.91-3.4-2.14-4.41-3.69-1.01-1.55-1.51-3.33-1.51-5.35h6.82c0,.8.22,1.53.66,2.22.44.68,1.11,1.23,2.02,1.64.91.41,2.09.62,3.54.62,1.31,0,2.4-.17,3.28-.51.88-.34,1.55-.82,2-1.43.45-.61.68-1.31.68-2.11,0-.99-.43-1.78-1.28-2.37-.85-.58-2.23-.96-4.14-1.13l-2.34-.17c-3.1-.28-5.57-1.26-7.42-2.92-1.85-1.66-2.77-3.87-2.77-6.63,0-2.02.48-3.75,1.43-5.2.95-1.45,2.28-2.56,3.99-3.35,1.71-.78,3.72-1.17,6.05-1.17s4.54.43,6.29,1.28c1.75.85,3.09,2.04,4.03,3.56.94,1.52,1.41,3.29,1.41,5.31h-6.82c0-.77-.19-1.47-.55-2.11-.37-.64-.92-1.15-1.64-1.53-.72-.38-1.63-.58-2.71-.58-1.02,0-1.88.16-2.58.49-.7.33-1.22.78-1.56,1.36-.34.58-.51,1.23-.51,1.94,0,.85.31,1.61.94,2.26.62.65,1.65,1.04,3.07,1.15l2.39.21c2.27.2,4.28.69,6.01,1.47,1.73.78,3.09,1.85,4.07,3.2.98,1.35,1.47,2.99,1.47,4.92s-.52,3.74-1.56,5.24c-1.04,1.51-2.51,2.67-4.41,3.5-1.9.82-4.18,1.24-6.82,1.24Z"/>
        <path class="e" d="M50.37,16.72c-.5-1.43-1.22-2.68-2.18-3.75-.95-1.06-2.09-1.89-3.41-2.49-1.32-.6-2.79-.9-4.41-.9-1.82,0-3.45.4-4.9,1.22-1.45.81-2.6,2.02-3.45,3.62-.28.53-.52,1.1-.72,1.71v-5.87h-5.46v34.68h6.86v-14.23c.78,1.12,1.76,1.99,2.92,2.59,1.41.72,2.99,1.08,4.75,1.08s3.22-.29,4.54-.89c1.32-.6,2.44-1.44,3.37-2.54.92-1.09,1.62-2.37,2.11-3.84.49-1.46.73-3.03.73-4.71v-.98c0-1.7-.25-3.27-.75-4.71ZM43.52,25.44c-.48,1.02-1.15,1.82-2.02,2.39-.87.57-1.88.85-3.05.85-.97,0-1.9-.23-2.82-.69-.91-.45-1.65-1.11-2.24-1.98-.58-.87-.87-1.91-.87-3.13v-1.58c0-1.25.28-2.33.83-3.24.55-.91,1.29-1.59,2.2-2.06.91-.47,1.88-.7,2.9-.7,1.17,0,2.18.28,3.05.83.87.55,1.54,1.32,2.02,2.3.49.98.73,2.14.73,3.47s-.24,2.51-.73,3.54Z"/>
        <path class="e" d="M63.99,34.61c-2.05,0-3.87-.32-5.46-.96-1.59-.64-2.94-1.52-4.05-2.64-1.11-1.12-1.95-2.4-2.52-3.84-.57-1.43-.85-2.95-.85-4.54v-.98c0-1.62.3-3.16.9-4.63.6-1.46,1.46-2.75,2.58-3.86,1.12-1.11,2.48-1.98,4.07-2.62,1.59-.64,3.37-.96,5.33-.96s3.82.32,5.39.96,2.92,1.51,4.03,2.62c1.11,1.11,1.96,2.39,2.56,3.86.6,1.46.9,3.01.9,4.63v.98c0,1.59-.28,3.11-.85,4.54-.57,1.44-1.4,2.71-2.49,3.84-1.09,1.12-2.44,2-4.03,2.64-1.59.64-3.43.96-5.5.96ZM63.99,28.81c1.34,0,2.44-.28,3.32-.85.88-.57,1.55-1.36,2-2.39.45-1.02.68-2.16.68-3.41,0-1.34-.23-2.51-.7-3.52-.47-1.01-1.15-1.8-2.05-2.39-.9-.58-1.98-.87-3.26-.87s-2.33.29-3.24.87c-.91.58-1.6,1.38-2.07,2.39-.47,1.01-.7,2.18-.7,3.52,0,1.25.23,2.39.68,3.41.45,1.02,1.14,1.82,2.05,2.39.91.57,2,.85,3.28.85Z"/>
        <path class="e" d="M98.9,19.67v13.34h-6.86v-13.73c0-1.25-.36-2.27-1.09-3.05-.72-.78-1.71-1.17-2.96-1.17s-2.31.4-3.09,1.2c-.78.79-1.17,1.85-1.17,3.15v13.6h-6.86V9.64h5.46v5.9c.14-.67.32-1.28.54-1.85.61-1.59,1.54-2.79,2.79-3.59,1.25-.79,2.77-1.19,4.56-1.19h.3c2.72,0,4.81.89,6.24,2.66,1.44,1.77,2.15,4.47,2.15,8.08Z"/>
        <path class="e" d="M109.69,33.77c-3.33,0-5.93-.69-7.8-2.07-1.88-1.38-2.87-3.3-2.98-5.78h6.05c.11.74.56,1.4,1.34,1.98.78.58,1.95.87,3.52.87,1.19,0,2.18-.21,2.96-.62.78-.41,1.17-1,1.17-1.77,0-.68-.31-1.23-.92-1.64-.61-.41-1.67-.69-3.18-.83l-1.83-.21c-2.81-.28-4.92-1.06-6.33-2.32-1.41-1.26-2.11-2.91-2.11-4.92,0-1.65.41-3.03,1.24-4.14.82-1.11,1.97-1.95,3.43-2.52,1.46-.57,3.13-.85,5.01-.85,3.01,0,5.44.66,7.29,1.98,1.85,1.32,2.81,3.23,2.9,5.73h-6.1c-.09-.74-.48-1.38-1.17-1.92-.7-.54-1.7-.81-3.01-.81-1.05,0-1.89.2-2.52.6-.63.4-.94.94-.94,1.62s.27,1.15.81,1.49c.54.34,1.42.58,2.64.72l1.83.17c2.87.31,5.1,1.11,6.69,2.39,1.59,1.28,2.39,3,2.39,5.16,0,1.56-.43,2.92-1.28,4.07-.85,1.15-2.06,2.04-3.62,2.66-1.56.63-3.4.94-5.5.94Z"/>
        <path class="e" d="M132.51,34.61c-2.05,0-3.87-.32-5.46-.96-1.59-.64-2.94-1.52-4.05-2.64-1.11-1.12-1.95-2.4-2.52-3.84-.57-1.43-.85-2.95-.85-4.54v-.98c0-1.62.3-3.16.9-4.63.6-1.46,1.46-2.75,2.58-3.86,1.12-1.11,2.48-1.98,4.07-2.62,1.59-.64,3.37-.96,5.33-.96s3.82.32,5.39.96,2.92,1.51,4.03,2.62c1.11,1.11,1.96,2.39,2.56,3.86.6,1.46.9,3.01.9,4.63v.98c0,1.59-.28,3.11-.85,4.54-.57,1.44-1.4,2.71-2.49,3.84-1.09,1.12-2.44,2-4.03,2.64-1.59.64-3.43.96-5.5.96ZM132.51,28.81c1.34,0,2.44-.28,3.32-.85.88-.57,1.55-1.36,2-2.39.45-1.02.68-2.16.68-3.41,0-1.34-.23-2.51-.7-3.52-.47-1.01-1.15-1.8-2.05-2.39-.9-.58-1.98-.87-3.26-.87s-2.33.29-3.24.87c-.91.58-1.6,1.38-2.07,2.39-.47,1.01-.7,2.18-.7,3.52,0,1.25.23,2.39.68,3.41.45,1.02,1.14,1.82,2.05,2.39.91.57,2,.85,3.28.85Z"/>
        <path class="e" d="M159.83,9.35v5.93h-1.7c-1.88,0-3.33.5-4.35,1.49-1.02.99-1.53,2.44-1.53,4.35v11.89h-6.86V9.64h5.46v7.77c.26-2.23.92-4.02,1.98-5.38,1.41-1.79,3.45-2.68,6.12-2.68h.9Z"/>
      </g>
      <g>
        <path class="e" d="M187.22,10.89c-.7-1.83-1.76-3.46-3.18-4.88-1.42-1.42-3.18-2.54-5.29-3.36-2.1-.82-4.56-1.24-7.37-1.24h-11.55v31.54h11.55c2.82,0,5.28-.43,7.37-1.3,2.11-.87,3.87-2.04,5.29-3.52,1.42-1.47,2.48-3.12,3.18-4.94.7-1.82,1.05-3.68,1.05-5.58v-.94c0-2.02-.35-3.94-1.05-5.77ZM180.53,20.95c-.45,1.15-1.07,2.14-1.88,2.94-.81.81-1.8,1.44-2.97,1.88-1.17.44-2.48.66-3.96.66h-4.9V7.97h4.9c1.48,0,2.8.2,3.96.6,1.17.4,2.15.99,2.97,1.79.81.8,1.43,1.76,1.88,2.9.44,1.14.66,2.43.66,3.88s-.22,2.66-.66,3.81Z"/>
        <path class="e" d="M196.74,1c-.61-.67-1.56-1-2.84-1s-2.22.34-2.83,1c-.61.67-.91,1.53-.91,2.58s.31,1.86.91,2.53c.61.67,1.56,1,2.83,1s2.23-.34,2.84-1c.61-.67.91-1.51.91-2.53s-.31-1.91-.91-2.58Z"/>
        <polygon class="e" points="198.09 9.42 198.09 32.93 191.22 32.93 191.22 14.5 188.11 14.5 188.11 9.42 198.09 9.42"/>
        <path class="e" d="M214.73,9.13v5.93h-1.7c-1.88,0-3.33.5-4.35,1.49-1.02.99-1.53,2.44-1.53,4.35v12.04h-6.86V9.42h5.46v7.71c.26-2.21.92-3.98,1.98-5.32,1.41-1.79,3.45-2.68,6.12-2.68h.9Z"/>
        <path class="e" d="M237.07,20.59c0-2.13-.46-4.1-1.37-5.9s-2.23-3.27-3.94-4.39c-1.72-1.12-3.83-1.68-6.33-1.68-1.9,0-3.6.33-5.1,1-1.49.67-2.74,1.57-3.75,2.71-1.01,1.14-1.78,2.42-2.3,3.86-.52,1.43-.79,2.94-.79,4.49v.85c0,1.5.26,2.98.79,4.41.52,1.44,1.3,2.74,2.32,3.9,1.02,1.17,2.3,2.09,3.82,2.77,1.52.68,3.27,1.02,5.26,1.02s3.69-.35,5.2-1.05c1.51-.7,2.76-1.65,3.75-2.88.99-1.22,1.66-2.62,2-4.18h-6.27c-.28.71-.82,1.31-1.62,1.79s-1.82.72-3.07.72c-1.37,0-2.47-.28-3.33-.85-.85-.57-1.48-1.37-1.88-2.41-.22-.58-.38-1.21-.48-1.89h17.06v-2.3ZM220.06,19.01c.1-.62.26-1.18.47-1.68.43-1.03,1.05-1.82,1.88-2.35.82-.52,1.83-.79,3.03-.79s2.14.26,2.92.79c.78.53,1.36,1.28,1.74,2.26.2.52.35,1.11.45,1.77h-10.49Z"/>
        <polygon class="e" points="261.24 32.87 253.53 32.87 246.19 21.87 243.94 21.87 243.94 32.87 237.07 32.87 237.07 1.67 243.94 1.67 243.94 20.53 252.42 9.42 259.58 9.42 251.91 19.4 261.24 32.87"/>
        <path class="e" d="M269.53,14.46v9.46c0,1.11.29,1.96.87,2.54.58.58,1.41.87,2.49.87h3.45v5.8h-3.28c-2.36,0-4.26-.3-5.71-.9-1.45-.6-2.51-1.59-3.19-2.97-.69-1.38-1.02-3.24-1.02-5.61l.02-9.2h-3.56v-5.03h3.57V3.12h6.36v6.3h6.82v5.03h-6.82Z"/>
      </g>
      <polygon class="d" points="175.01 54.32 175.01 45.25 165.19 45.25 165.19 45.25 132.07 45.25 132.07 38.63 158.58 38.63 158.58 38.63 181.56 38.63 190.76 38.64 175.01 54.32"/>
    </g>
  </g>
</svg>